<mxfile host="app.diagrams.net" agent="Mozilla/5.0 (Windows NT 10.0; Win64; x64; rv:139.0) Gecko/20100101 Firefox/139.0" version="27.1.4">
  <diagram name="Страница — 1" id="vKgxhVUG8v1YudVYXvH5">
    <mxGraphModel dx="1058" dy="485" grid="1" gridSize="10" guides="1" tooltips="1" connect="1" arrows="1" fold="1" page="1" pageScale="1" pageWidth="827" pageHeight="1169" math="0" shadow="0">
      <root>
        <mxCell id="0" />
        <mxCell id="1" parent="0" />
        <mxCell id="oOb8ptVoilpQ5AJhGUSj-2" value="ИНВЕСТОР" style="rounded=1;whiteSpace=wrap;html=1;" parent="1" vertex="1">
          <mxGeometry x="310" y="585" width="120" height="60" as="geometry" />
        </mxCell>
        <mxCell id="oOb8ptVoilpQ5AJhGUSj-3" value="СЧЁТ" style="rounded=1;whiteSpace=wrap;html=1;" parent="1" vertex="1">
          <mxGeometry x="310" y="450" width="120" height="60" as="geometry" />
        </mxCell>
        <mxCell id="oOb8ptVoilpQ5AJhGUSj-6" value="М2М связь&lt;br&gt;&lt;div&gt;&lt;br&gt;&lt;/div&gt;&lt;div&gt;брокер-инвестор&lt;/div&gt;" style="rounded=1;whiteSpace=wrap;html=1;" parent="1" vertex="1">
          <mxGeometry x="530" y="585" width="120" height="60" as="geometry" />
        </mxCell>
        <mxCell id="oOb8ptVoilpQ5AJhGUSj-10" value="М2М связь&lt;br&gt;&lt;div&gt;&lt;br&gt;&lt;/div&gt;&lt;div&gt;счёт-актив&lt;/div&gt;" style="rounded=1;whiteSpace=wrap;html=1;" parent="1" vertex="1">
          <mxGeometry x="140" y="240" width="120" height="60" as="geometry" />
        </mxCell>
        <mxCell id="oOb8ptVoilpQ5AJhGUSj-16" value="" style="fontSize=12;html=1;endArrow=ERoneToMany;rounded=0;verticalAlign=top;" parent="1" edge="1">
          <mxGeometry width="100" height="100" relative="1" as="geometry">
            <mxPoint x="370" y="520" as="sourcePoint" />
            <mxPoint x="370" y="510" as="targetPoint" />
            <Array as="points" />
          </mxGeometry>
        </mxCell>
        <mxCell id="oOb8ptVoilpQ5AJhGUSj-28" value="ТРАНЗАКЦИЯ" style="rounded=1;whiteSpace=wrap;html=1;" parent="1" vertex="1">
          <mxGeometry x="310" y="330" width="120" height="60" as="geometry" />
        </mxCell>
        <mxCell id="oOb8ptVoilpQ5AJhGUSj-32" value="АКТИВ" style="rounded=1;whiteSpace=wrap;html=1;" parent="1" vertex="1">
          <mxGeometry x="530" y="328" width="120" height="64" as="geometry" />
        </mxCell>
        <mxCell id="oOb8ptVoilpQ5AJhGUSj-48" value="" style="endArrow=none;dashed=1;html=1;rounded=0;" parent="1" edge="1">
          <mxGeometry width="50" height="50" relative="1" as="geometry">
            <mxPoint x="430" y="614.8199999999999" as="sourcePoint" />
            <mxPoint x="530" y="614.8199999999999" as="targetPoint" />
            <Array as="points" />
          </mxGeometry>
        </mxCell>
        <mxCell id="oOb8ptVoilpQ5AJhGUSj-49" value="БРОКЕР" style="rounded=1;whiteSpace=wrap;html=1;" parent="1" vertex="1">
          <mxGeometry x="530" y="450" width="120" height="60" as="geometry" />
        </mxCell>
        <mxCell id="JDaWL42p9K6xXjtLEoiw-2" value="" style="endArrow=none;dashed=1;html=1;rounded=0;entryX=0.5;entryY=0;entryDx=0;entryDy=0;exitX=0.5;exitY=1;exitDx=0;exitDy=0;" edge="1" parent="1" source="oOb8ptVoilpQ5AJhGUSj-49" target="oOb8ptVoilpQ5AJhGUSj-6">
          <mxGeometry width="50" height="50" relative="1" as="geometry">
            <mxPoint x="490" y="540" as="sourcePoint" />
            <mxPoint x="590" y="540" as="targetPoint" />
            <Array as="points" />
          </mxGeometry>
        </mxCell>
        <mxCell id="JDaWL42p9K6xXjtLEoiw-3" value="" style="endArrow=none;dashed=1;html=1;rounded=0;exitX=0.5;exitY=0;exitDx=0;exitDy=0;" edge="1" parent="1" source="oOb8ptVoilpQ5AJhGUSj-2">
          <mxGeometry width="50" height="50" relative="1" as="geometry">
            <mxPoint x="480" y="600" as="sourcePoint" />
            <mxPoint x="370" y="540" as="targetPoint" />
            <Array as="points" />
          </mxGeometry>
        </mxCell>
        <mxCell id="JDaWL42p9K6xXjtLEoiw-4" value="" style="endArrow=none;html=1;rounded=0;entryX=0.5;entryY=1;entryDx=0;entryDy=0;" edge="1" parent="1" target="oOb8ptVoilpQ5AJhGUSj-3">
          <mxGeometry width="50" height="50" relative="1" as="geometry">
            <mxPoint x="370" y="550" as="sourcePoint" />
            <mxPoint x="460" y="280" as="targetPoint" />
          </mxGeometry>
        </mxCell>
        <mxCell id="JDaWL42p9K6xXjtLEoiw-6" value="" style="fontSize=12;html=1;endArrow=ERoneToMany;rounded=0;verticalAlign=top;entryX=0;entryY=0.5;entryDx=0;entryDy=0;" edge="1" parent="1" target="oOb8ptVoilpQ5AJhGUSj-6">
          <mxGeometry width="100" height="100" relative="1" as="geometry">
            <mxPoint x="520" y="615" as="sourcePoint" />
            <mxPoint x="520" y="610" as="targetPoint" />
            <Array as="points" />
          </mxGeometry>
        </mxCell>
        <mxCell id="JDaWL42p9K6xXjtLEoiw-7" value="" style="fontSize=12;html=1;endArrow=ERoneToMany;rounded=0;verticalAlign=top;entryX=0;entryY=0.5;entryDx=0;entryDy=0;" edge="1" parent="1">
          <mxGeometry width="100" height="100" relative="1" as="geometry">
            <mxPoint x="589.9" y="575" as="sourcePoint" />
            <mxPoint x="589.9" y="585" as="targetPoint" />
            <Array as="points" />
          </mxGeometry>
        </mxCell>
        <mxCell id="JDaWL42p9K6xXjtLEoiw-8" value="" style="endArrow=none;dashed=1;html=1;rounded=0;" edge="1" parent="1">
          <mxGeometry width="50" height="50" relative="1" as="geometry">
            <mxPoint x="430" y="479.93" as="sourcePoint" />
            <mxPoint x="530" y="479.93" as="targetPoint" />
            <Array as="points" />
          </mxGeometry>
        </mxCell>
        <mxCell id="JDaWL42p9K6xXjtLEoiw-9" value="" style="endArrow=none;html=1;rounded=0;" edge="1" parent="1">
          <mxGeometry width="50" height="50" relative="1" as="geometry">
            <mxPoint x="430" y="480" as="sourcePoint" />
            <mxPoint x="480" y="480" as="targetPoint" />
          </mxGeometry>
        </mxCell>
        <mxCell id="JDaWL42p9K6xXjtLEoiw-10" value="" style="fontSize=12;html=1;endArrow=ERoneToMany;rounded=0;verticalAlign=top;" edge="1" parent="1">
          <mxGeometry width="100" height="100" relative="1" as="geometry">
            <mxPoint x="440" y="480" as="sourcePoint" />
            <mxPoint x="430" y="480" as="targetPoint" />
            <Array as="points" />
          </mxGeometry>
        </mxCell>
        <mxCell id="JDaWL42p9K6xXjtLEoiw-11" value="" style="fontSize=12;html=1;endArrow=ERoneToMany;rounded=0;verticalAlign=top;" edge="1" parent="1">
          <mxGeometry width="100" height="100" relative="1" as="geometry">
            <mxPoint x="368" y="400" as="sourcePoint" />
            <mxPoint x="368" y="390" as="targetPoint" />
            <Array as="points" />
          </mxGeometry>
        </mxCell>
        <mxCell id="JDaWL42p9K6xXjtLEoiw-12" value="" style="endArrow=none;dashed=1;html=1;rounded=0;exitX=0.5;exitY=0;exitDx=0;exitDy=0;" edge="1" parent="1">
          <mxGeometry width="50" height="50" relative="1" as="geometry">
            <mxPoint x="368" y="450" as="sourcePoint" />
            <mxPoint x="368" y="405" as="targetPoint" />
            <Array as="points" />
          </mxGeometry>
        </mxCell>
        <mxCell id="JDaWL42p9K6xXjtLEoiw-13" value="" style="endArrow=none;html=1;rounded=0;entryX=0.5;entryY=1;entryDx=0;entryDy=0;" edge="1" parent="1">
          <mxGeometry width="50" height="50" relative="1" as="geometry">
            <mxPoint x="368" y="420" as="sourcePoint" />
            <mxPoint x="368" y="390" as="targetPoint" />
          </mxGeometry>
        </mxCell>
        <mxCell id="JDaWL42p9K6xXjtLEoiw-15" value="" style="endArrow=none;dashed=1;html=1;rounded=0;" edge="1" parent="1">
          <mxGeometry width="50" height="50" relative="1" as="geometry">
            <mxPoint x="430" y="360" as="sourcePoint" />
            <mxPoint x="530" y="360" as="targetPoint" />
            <Array as="points" />
          </mxGeometry>
        </mxCell>
        <mxCell id="JDaWL42p9K6xXjtLEoiw-16" value="" style="endArrow=none;html=1;rounded=0;" edge="1" parent="1">
          <mxGeometry width="50" height="50" relative="1" as="geometry">
            <mxPoint x="430" y="360.07" as="sourcePoint" />
            <mxPoint x="480" y="360.07" as="targetPoint" />
          </mxGeometry>
        </mxCell>
        <mxCell id="JDaWL42p9K6xXjtLEoiw-17" value="" style="fontSize=12;html=1;endArrow=ERoneToMany;rounded=0;verticalAlign=top;" edge="1" parent="1">
          <mxGeometry width="100" height="100" relative="1" as="geometry">
            <mxPoint x="440" y="360.07" as="sourcePoint" />
            <mxPoint x="430" y="360.07" as="targetPoint" />
            <Array as="points" />
          </mxGeometry>
        </mxCell>
        <mxCell id="JDaWL42p9K6xXjtLEoiw-18" value="" style="endArrow=none;dashed=1;html=1;rounded=0;entryX=0;entryY=0.5;entryDx=0;entryDy=0;" edge="1" parent="1" target="oOb8ptVoilpQ5AJhGUSj-3">
          <mxGeometry width="50" height="50" relative="1" as="geometry">
            <mxPoint x="200" y="310" as="sourcePoint" />
            <mxPoint x="300" y="490" as="targetPoint" />
            <Array as="points">
              <mxPoint x="200" y="480" />
            </Array>
          </mxGeometry>
        </mxCell>
        <mxCell id="JDaWL42p9K6xXjtLEoiw-20" value="" style="fontSize=12;html=1;endArrow=ERoneToMany;rounded=0;verticalAlign=top;" edge="1" parent="1">
          <mxGeometry width="100" height="100" relative="1" as="geometry">
            <mxPoint x="200" y="310" as="sourcePoint" />
            <mxPoint x="200" y="300" as="targetPoint" />
            <Array as="points" />
          </mxGeometry>
        </mxCell>
        <mxCell id="JDaWL42p9K6xXjtLEoiw-21" value="" style="endArrow=none;dashed=1;html=1;rounded=0;entryX=0.5;entryY=0;entryDx=0;entryDy=0;exitX=1;exitY=0.5;exitDx=0;exitDy=0;" edge="1" parent="1" source="oOb8ptVoilpQ5AJhGUSj-10" target="oOb8ptVoilpQ5AJhGUSj-32">
          <mxGeometry width="50" height="50" relative="1" as="geometry">
            <mxPoint x="230" y="350" as="sourcePoint" />
            <mxPoint x="340" y="400" as="targetPoint" />
            <Array as="points">
              <mxPoint x="590" y="270" />
            </Array>
          </mxGeometry>
        </mxCell>
        <mxCell id="JDaWL42p9K6xXjtLEoiw-22" value="" style="fontSize=12;html=1;endArrow=ERoneToMany;rounded=0;verticalAlign=top;" edge="1" parent="1">
          <mxGeometry width="100" height="100" relative="1" as="geometry">
            <mxPoint x="270" y="270" as="sourcePoint" />
            <mxPoint x="260" y="270" as="targetPoint" />
            <Array as="points" />
          </mxGeometry>
        </mxCell>
      </root>
    </mxGraphModel>
  </diagram>
</mxfile>
